<svg xmlns="http://www.w3.org/2000/svg" version="1.1" xmlns:xlink="http://www.w3.org/1999/xlink" xmlns:svgjs="http://svgjs.dev/svgjs" width="2000" height="1500" viewBox="0 0 2000 1500"><rect width="2000" height="1500" fill="#ffffff"></rect><g transform="matrix(0.75,0,0,0.75,249.090909090909,282.7536437246963)"><svg viewBox="0 0 396 247" data-background-color="#ffffff" preserveAspectRatio="xMidYMid meet" height="1247" width="2000" xmlns="http://www.w3.org/2000/svg" xmlns:xlink="http://www.w3.org/1999/xlink"><g id="tight-bounds" transform="matrix(1,0,0,1,0.2400000000000091,-0.09999999999999432)"><svg viewBox="0 0 395.52 247.2" height="247.2" width="395.52"><g><svg></svg></g><g><svg viewBox="0 0 395.52 247.2" height="247.2" width="395.52"><mask id="af15ae7d-e461-45c1-84bf-5e5a0fda09b0"><rect width="395.52" height="247.2" fill="white"></rect><g transform="matrix(1,0,0,1,0,77.09195675856867)" id="clone"><svg viewBox="0 0 395.52 93.01608648286263" height="93.01608648286263" width="395.52"><g><svg viewBox="0 0 395.52 93.01608648286263" height="93.01608648286263" width="395.52"><g><svg viewBox="0 0 395.52000000000004 93.01608648286265" height="93.01608648286263" width="395.52"><g><svg viewBox="0 0 395.52000000000004 93.01608648286265" height="93.01608648286265" width="395.52000000000004"><g id="SvgjsG1183"><svg viewBox="0 0 395.52000000000004 93.01608648286265" height="93.01608648286265" width="395.52000000000004" id="SvgjsSvg1182"><g><svg viewBox="0 0 395.52000000000004 93.01608648286265" height="93.01608648286265" width="395.52000000000004"><g transform="matrix(1,0,0,1,0,0)"><svg width="395.52000000000004" viewBox="-2.899999998509884 -38.45000076293945 175.7899932861328 42.11000061035156" height="93.01608648286265" data-palette-color="#111827"><path d="M26 0L12.84 0Q12.01 0 12.01-0.49L12.01-0.49 12.01-0.73Q12.01-1.12 12.73-1.21 13.45-1.29 13.67-1.32L13.67-1.32Q15.53-1.51 16.28-2.23 17.04-2.95 17.04-4.39L17.04-4.39 17.04-12.48Q17.04-12.65 16.97-12.84L16.97-12.84 6.98-28.76Q4.64-32.5 2.34-33.06L2.34-33.06Q2.22-33.08 1.9-33.15 1.59-33.23 0.49-33.4L0.49-33.4Q0.1-33.47 0.1-33.95 0.1-34.42 0.46-34.42L0.46-34.42 14.43-34.42Q14.84-34.42 14.84-33.94 14.84-33.45 14.43-33.45L14.43-33.45Q12.79-33.28 12.26-33.11L12.26-33.11Q11.04-32.67 11.04-31.54L11.04-31.54Q11.04-30.96 11.33-30.49L11.33-30.49 19.58-17.31Q19.85-16.92 19.91-16.81 19.97-16.7 20.18-16.7 20.39-16.7 20.83-17.41L20.83-17.41 27.42-28.61Q27.71-29.2 28.09-29.87 28.47-30.54 28.47-31.25L28.47-31.25Q28.47-33.03 26.03-33.35L26.03-33.35Q25.15-33.47 25.07-33.62 25-33.76 25-33.98L25-33.98Q25-34.42 25.42-34.42L25.42-34.42 36.82-34.42Q37.16-34.42 37.16-34.08 37.16-33.74 37.05-33.62 36.94-33.5 36.76-33.44 36.57-33.37 36.35-33.34 36.13-33.3 35.4-33.13L35.4-33.13Q33.69-32.71 31.69-30.42L31.69-30.42Q31.47-30.15 31.45-30.1L31.45-30.1 21.8-13.5 21.8-4.39Q21.8-3.08 22.55-2.32 23.29-1.56 25.06-1.33 26.83-1.1 26.83-0.76L26.83-0.76 26.83-0.49Q26.83 0 26 0L26 0ZM51.29-33.45L51.29-33.45Q47.19-33.45 47.19-30.18L47.19-30.18 47.19-12.7Q47.19-7.86 50.39-4.8 53.59-1.73 58.59-1.73L58.59-1.73Q63.79-1.73 67.12-4.53 70.46-7.32 70.46-12.28L70.46-12.28 70.46-27.81Q70.46-30.13 70.04-31.03L70.04-31.03Q68.99-33.45 65.31-33.45L65.31-33.45Q65.11-33.45 65.11-33.64L65.11-33.64 65.11-34.23Q65.11-34.42 65.31-34.42L65.31-34.42 77.32-34.42Q77.51-34.42 77.51-34.23L77.51-34.23 77.51-33.64Q77.51-33.45 76.98-33.45L76.98-33.45Q73.78-33.45 73.07-30.96L73.07-30.96Q72.95-30.54 72.95-30.18L72.95-30.18 72.95-14.18Q72.95-3.47 64.74-0.39L64.74-0.39Q61.98 0.66 59.25 0.66L59.25 0.66Q49.46 0.66 44.82-4.47L44.82-4.47Q42.43-7.1 42.43-10.99L42.43-10.99 42.43-30.52Q42.43-32.59 39.91-33.25L39.91-33.25Q39.18-33.45 38.67-33.45 38.16-33.45 38.16-33.64L38.16-33.64 38.16-34.23Q38.16-34.42 38.33-34.42L38.33-34.42 51.56-34.42Q51.76-34.42 51.76-34.23L51.76-34.23 51.76-33.64Q51.76-33.45 51.29-33.45ZM97.33-33.96L98.7-34.13Q98.95-34.13 98.95-33.59L98.95-33.59 99.58-28.39Q99.68-27.91 99.68-27.77 99.68-27.64 99.3-27.64 98.92-27.64 98.82-27.73 98.73-27.83 98.63-28.06 98.53-28.3 98.4-28.59 98.26-28.88 98.12-29.17L98.12-29.17Q97.6-30.3 96.5-31.4L96.5-31.4Q93.82-33.98 90.45-33.98L90.45-33.98Q88.42-33.98 86.62-32.67 84.81-31.35 84.81-29.55 84.81-27.76 85.48-26.44 86.15-25.12 87.25-24 88.35-22.88 89.77-21.85 91.18-20.83 92.65-19.78L92.65-19.78Q96.53-17.07 98.16-15.14L98.16-15.14Q100.73-12.16 100.95-8.45L100.95-8.45Q100.95-4.3 97.76-1.82 94.58 0.66 90.35 0.66L90.35 0.66Q87.64 0.66 86.04 0.11 84.44-0.44 83.83-0.68 83.22-0.93 82.94-0.93 82.66-0.93 82.59-0.9L82.59-0.9 81.39-0.66Q81.07-0.66 81-1.17L81-1.17Q80.29-7.23 80.29-7.6 80.29-7.98 80.35-8.12 80.41-8.25 80.68-8.25L80.68-8.25Q81.37-8.25 81.93-6.3L81.93-6.3Q84.49-0.81 90.45-0.81L90.45-0.81Q93.18-0.81 95.12-2.47 97.07-4.13 97.07-6.79L97.07-6.79Q97.07-11.04 91.99-14.7L91.99-14.7Q90.55-15.72 87.84-17.55 85.13-19.38 83.52-21.22L83.52-21.22Q81-24.05 81-27.53 81-31.01 83.77-33.23 86.54-35.45 90.13-35.45L90.13-35.45Q91.99-35.45 94.22-34.81 96.45-34.18 97.33-33.96L97.33-33.96ZM117.16-33.45L117.16-33.45Q113.05-33.45 113.05-30.18L113.05-30.18 113.05-12.7Q113.05-7.86 116.25-4.8 119.45-1.73 124.46-1.73L124.46-1.73Q129.66-1.73 132.99-4.53 136.32-7.32 136.32-12.28L136.32-12.28 136.32-27.81Q136.32-30.13 135.91-31.03L135.91-31.03Q134.86-33.45 131.17-33.45L131.17-33.45Q130.97-33.45 130.97-33.64L130.97-33.64 130.97-34.23Q130.97-34.42 131.17-34.42L131.17-34.42 143.18-34.42Q143.38-34.42 143.38-34.23L143.38-34.23 143.38-33.64Q143.38-33.45 142.84-33.45L142.84-33.45Q139.64-33.45 138.93-30.96L138.93-30.96Q138.81-30.54 138.81-30.18L138.81-30.18 138.81-14.18Q138.81-3.47 130.61-0.39L130.61-0.39Q127.85 0.66 125.11 0.66L125.11 0.66Q115.32 0.66 110.69-4.47L110.69-4.47Q108.29-7.1 108.29-10.99L108.29-10.99 108.29-30.52Q108.29-32.59 105.78-33.25L105.78-33.25Q105.05-33.45 104.53-33.45 104.02-33.45 104.02-33.64L104.02-33.64 104.02-34.23Q104.02-34.42 104.19-34.42L104.19-34.42 117.42-34.42Q117.62-34.42 117.62-34.23L117.62-34.23 117.62-33.64Q117.62-33.45 117.16-33.45ZM155.34-19.75L164.91-19.75Q168.18-19.75 168.18-22.95L168.18-22.95Q168.18-23.14 168.37-23.14L168.37-23.14 168.96-23.14Q169.16-23.14 169.16-22.95L169.16-22.95 169.16-13.87Q169.16-13.67 168.96-13.67L168.96-13.67 168.37-13.67Q168.18-13.67 168.18-13.87L168.18-13.87Q168.18-16.11 166.91-16.97L166.91-16.97Q166.23-17.43 164.96-17.43L164.96-17.43 155.34-17.43Q154.75-17.43 154.75-16.77L154.75-16.77 154.75-4.22Q154.75-2.56 156.74-1.77 158.73-0.98 159.26-0.98 159.78-0.98 159.78-0.78L159.78-0.78 159.78-0.2Q159.78 0 159.58 0L159.58 0 146.25 0Q146.06 0 146.06-0.2L146.06-0.2 146.06-0.78Q146.06-0.98 146.47-0.98 146.89-0.98 147.77-1.37 148.65-1.76 149.32-2.53 149.99-3.3 149.99-4.39L149.99-4.39 149.99-30.76Q149.99-32.35 148.31-33.03L148.31-33.03Q147.33-33.45 146.38-33.45L146.38-33.45 146.28-33.45Q146.08-33.45 146.08-33.64L146.08-33.64 146.08-34.23Q146.08-34.42 146.28-34.42L146.28-34.42 169.3-34.42Q169.59-34.38 169.74-34.29 169.89-34.2 169.89-33.86L169.89-33.86 169.89-27.95Q169.89-27.66 169.8-27.59 169.72-27.51 169.5-27.51L169.5-27.51 169.2-27.51Q169.16-27.54 168.87-28.85 168.59-30.15 168.01-30.86L168.01-30.86Q167.01-31.93 165.74-32.06L165.74-32.06Q165.22-32.1 164.49-32.1L164.49-32.1 155.24-32.1Q154.75-32.1 154.75-31.62L154.75-31.62 154.75-20.31Q154.75-19.75 155.34-19.75L155.34-19.75Z" opacity="1" transform="matrix(1,0,0,1,0,0)" fill="black" class="wordmark-text-0" id="SvgjsPath1181" stroke-width="5" stroke="black" stroke-linejoin="round"></path></svg></g></svg></g></svg></g></svg></g></svg></g></svg></g></svg></g></mask><g mask="url(#af15ae7d-e461-45c1-84bf-5e5a0fda09b0)"><g><path xmlns="http://www.w3.org/2000/svg" d="M250.685 247.186h-94.503c-3.974 0-5.96-1.173-5.961-3.518v0-1.724c0-1.867 1.723-3.016 5.171-3.447 3.447-0.383 5.697-0.646 6.75-0.79v0c8.905-0.91 15.152-3.088 18.742-6.535 3.638-3.447 5.458-8.617 5.458-15.511v0-58.095c0-0.814-0.168-1.676-0.503-2.585v0l-71.738-114.322c-11.202-17.905-22.309-28.198-33.321-30.879v0c-0.574-0.096-1.628-0.311-3.159-0.646-1.484-0.383-4.859-0.981-10.126-1.796v0c-1.867-0.335-2.801-1.652-2.8-3.949 0-2.25 0.862-3.375 2.585-3.375v0h100.319c1.963 0 2.944 1.149 2.945 3.447 0 2.346-0.981 3.519-2.945 3.518v0c-7.851 0.814-13.046 1.628-15.582 2.442v0c-5.841 2.106-8.761 5.865-8.761 11.274v0c0 2.777 0.694 5.29 2.082 7.54v0l59.244 94.647c1.293 1.867 2.083 3.064 2.37 3.59 0.287 0.527 0.934 0.79 1.939 0.79 1.005 0 2.561-1.7 4.667-5.098v0l47.324-80.428c1.388-2.825 2.992-5.841 4.811-9.048 1.819-3.208 2.729-6.511 2.729-9.91v0c0-8.522-5.841-13.548-17.522-15.081v0c-4.213-0.574-6.511-1.221-6.894-1.938-0.335-0.67-0.503-1.532-0.503-2.586v0c0-2.106 1.005-3.16 3.016-3.159v0h81.865c1.628 0 2.442 0.814 2.441 2.441 0 1.628-0.263 2.729-0.79 3.304-0.527 0.574-1.221 1.005-2.082 1.292-0.91 0.335-1.891 0.574-2.944 0.718-1.053 0.192-3.327 0.694-6.822 1.508v0c-8.186 2.011-17.067 8.498-26.642 19.461v0c-1.053 1.293-1.628 2.059-1.724 2.298v0l-69.297 119.206v65.419c0 6.271 1.795 11.226 5.386 14.865 3.543 3.638 9.551 6.008 18.024 7.109 8.474 1.101 12.71 2.466 12.711 4.094v0 1.938c0 2.346-1.987 3.519-5.961 3.519z" fill="#111827" fill-rule="nonzero" stroke="none" stroke-width="1" stroke-linecap="butt" stroke-linejoin="miter" stroke-miterlimit="10" stroke-dasharray="" stroke-dashoffset="0" font-family="none" font-weight="none" font-size="none" text-anchor="none" style="mix-blend-mode: normal" data-fill-palette-color="tertiary"></path></g></g><g transform="matrix(1,0,0,1,0,77.09195675856867)"><svg viewBox="0 0 395.52 93.01608648286263" height="93.01608648286263" width="395.52"><g><svg viewBox="0 0 395.52 93.01608648286263" height="93.01608648286263" width="395.52"><g><svg viewBox="0 0 395.52000000000004 93.01608648286265" height="93.01608648286263" width="395.52"><g><svg viewBox="0 0 395.52000000000004 93.01608648286265" height="93.01608648286265" width="395.52000000000004"><g id="textblocktransform"><svg viewBox="0 0 395.52000000000004 93.01608648286265" height="93.01608648286265" width="395.52000000000004" id="textblock"><g><svg viewBox="0 0 395.52000000000004 93.01608648286265" height="93.01608648286265" width="395.52000000000004"><g transform="matrix(1,0,0,1,0,0)"><svg width="395.52000000000004" viewBox="-2.899999998509884 -38.45000076293945 175.7899932861328 42.11000061035156" height="93.01608648286265" data-palette-color="#111827"><path d="M26 0L12.84 0Q12.01 0 12.01-0.49L12.01-0.49 12.01-0.73Q12.01-1.12 12.73-1.21 13.45-1.29 13.67-1.32L13.67-1.32Q15.53-1.51 16.28-2.23 17.04-2.95 17.04-4.39L17.04-4.39 17.04-12.48Q17.04-12.65 16.97-12.84L16.97-12.84 6.98-28.76Q4.64-32.5 2.34-33.06L2.34-33.06Q2.22-33.08 1.9-33.15 1.59-33.23 0.49-33.4L0.49-33.4Q0.1-33.47 0.1-33.95 0.1-34.42 0.46-34.42L0.46-34.42 14.43-34.42Q14.84-34.42 14.84-33.94 14.84-33.45 14.43-33.45L14.43-33.45Q12.79-33.28 12.26-33.11L12.26-33.11Q11.04-32.67 11.04-31.54L11.04-31.54Q11.04-30.96 11.33-30.49L11.33-30.49 19.58-17.31Q19.85-16.92 19.91-16.81 19.97-16.7 20.18-16.7 20.39-16.7 20.83-17.41L20.83-17.41 27.42-28.61Q27.71-29.2 28.09-29.87 28.47-30.54 28.47-31.25L28.47-31.25Q28.47-33.03 26.03-33.35L26.03-33.35Q25.15-33.47 25.07-33.62 25-33.76 25-33.98L25-33.98Q25-34.42 25.42-34.42L25.42-34.42 36.82-34.42Q37.16-34.42 37.16-34.08 37.16-33.74 37.05-33.62 36.94-33.5 36.76-33.44 36.57-33.37 36.35-33.34 36.13-33.3 35.4-33.13L35.4-33.13Q33.69-32.71 31.69-30.42L31.69-30.42Q31.47-30.15 31.45-30.1L31.45-30.1 21.8-13.5 21.8-4.39Q21.8-3.08 22.55-2.32 23.29-1.56 25.06-1.33 26.83-1.1 26.83-0.76L26.83-0.76 26.83-0.49Q26.83 0 26 0L26 0ZM51.29-33.45L51.29-33.45Q47.19-33.45 47.19-30.18L47.19-30.18 47.19-12.7Q47.19-7.86 50.39-4.8 53.59-1.73 58.59-1.73L58.59-1.73Q63.79-1.73 67.12-4.53 70.46-7.32 70.46-12.28L70.46-12.28 70.46-27.81Q70.46-30.13 70.04-31.03L70.04-31.03Q68.99-33.45 65.31-33.45L65.31-33.45Q65.11-33.45 65.11-33.64L65.11-33.64 65.11-34.23Q65.11-34.42 65.31-34.42L65.31-34.42 77.32-34.42Q77.51-34.42 77.51-34.23L77.51-34.23 77.51-33.64Q77.51-33.45 76.98-33.45L76.98-33.45Q73.78-33.45 73.07-30.96L73.07-30.96Q72.95-30.54 72.95-30.18L72.95-30.18 72.95-14.18Q72.95-3.47 64.74-0.39L64.74-0.39Q61.98 0.66 59.25 0.66L59.25 0.66Q49.46 0.66 44.82-4.47L44.82-4.47Q42.43-7.1 42.43-10.99L42.43-10.99 42.43-30.52Q42.43-32.59 39.91-33.25L39.91-33.25Q39.18-33.45 38.67-33.45 38.16-33.45 38.16-33.64L38.16-33.64 38.16-34.23Q38.16-34.42 38.33-34.42L38.33-34.42 51.56-34.42Q51.76-34.42 51.76-34.23L51.76-34.23 51.76-33.64Q51.76-33.45 51.29-33.45ZM97.33-33.96L98.7-34.13Q98.95-34.13 98.95-33.59L98.95-33.59 99.58-28.39Q99.68-27.91 99.68-27.77 99.68-27.64 99.3-27.64 98.92-27.64 98.82-27.73 98.73-27.83 98.63-28.06 98.53-28.3 98.4-28.59 98.26-28.88 98.12-29.17L98.12-29.17Q97.6-30.3 96.5-31.4L96.5-31.4Q93.82-33.98 90.45-33.98L90.45-33.98Q88.42-33.98 86.62-32.67 84.81-31.35 84.81-29.55 84.81-27.76 85.48-26.44 86.15-25.12 87.25-24 88.35-22.88 89.77-21.85 91.18-20.83 92.65-19.78L92.65-19.78Q96.53-17.07 98.16-15.14L98.16-15.14Q100.73-12.16 100.95-8.45L100.95-8.45Q100.95-4.3 97.76-1.82 94.58 0.66 90.35 0.66L90.35 0.66Q87.64 0.66 86.04 0.11 84.44-0.44 83.83-0.68 83.22-0.93 82.94-0.93 82.66-0.93 82.59-0.9L82.59-0.9 81.39-0.66Q81.07-0.66 81-1.17L81-1.17Q80.29-7.23 80.29-7.6 80.29-7.98 80.35-8.12 80.41-8.25 80.68-8.25L80.68-8.25Q81.37-8.25 81.93-6.3L81.93-6.3Q84.49-0.81 90.45-0.81L90.45-0.81Q93.18-0.81 95.12-2.47 97.07-4.13 97.07-6.79L97.07-6.79Q97.07-11.04 91.99-14.7L91.99-14.7Q90.55-15.72 87.84-17.55 85.13-19.38 83.52-21.22L83.52-21.22Q81-24.05 81-27.53 81-31.01 83.77-33.23 86.54-35.45 90.13-35.45L90.13-35.45Q91.99-35.45 94.22-34.81 96.45-34.18 97.33-33.96L97.33-33.96ZM117.16-33.45L117.16-33.45Q113.05-33.45 113.05-30.18L113.05-30.18 113.05-12.7Q113.05-7.86 116.25-4.8 119.45-1.73 124.46-1.73L124.46-1.73Q129.66-1.73 132.99-4.53 136.32-7.32 136.32-12.28L136.32-12.28 136.32-27.81Q136.32-30.13 135.91-31.03L135.91-31.03Q134.86-33.45 131.17-33.45L131.17-33.45Q130.97-33.45 130.97-33.64L130.97-33.64 130.97-34.23Q130.97-34.42 131.17-34.42L131.17-34.42 143.18-34.42Q143.38-34.42 143.38-34.23L143.38-34.23 143.38-33.64Q143.38-33.45 142.84-33.45L142.84-33.45Q139.64-33.45 138.93-30.96L138.93-30.96Q138.81-30.54 138.81-30.18L138.81-30.18 138.81-14.18Q138.81-3.47 130.61-0.39L130.61-0.39Q127.85 0.66 125.11 0.66L125.11 0.66Q115.32 0.66 110.69-4.47L110.69-4.47Q108.29-7.1 108.29-10.99L108.29-10.99 108.29-30.52Q108.29-32.59 105.78-33.25L105.78-33.25Q105.05-33.45 104.53-33.45 104.02-33.45 104.02-33.64L104.02-33.64 104.02-34.23Q104.02-34.42 104.19-34.42L104.19-34.42 117.42-34.42Q117.62-34.42 117.62-34.23L117.62-34.23 117.62-33.64Q117.62-33.45 117.16-33.45ZM155.34-19.75L164.91-19.75Q168.18-19.75 168.18-22.95L168.18-22.95Q168.18-23.14 168.37-23.14L168.37-23.14 168.96-23.14Q169.16-23.14 169.16-22.95L169.16-22.95 169.16-13.87Q169.16-13.67 168.96-13.67L168.96-13.67 168.37-13.67Q168.18-13.67 168.18-13.87L168.18-13.87Q168.18-16.11 166.91-16.97L166.91-16.97Q166.23-17.43 164.96-17.43L164.96-17.43 155.34-17.43Q154.75-17.43 154.75-16.77L154.75-16.77 154.75-4.22Q154.75-2.56 156.74-1.77 158.73-0.98 159.26-0.98 159.78-0.98 159.78-0.78L159.78-0.78 159.78-0.2Q159.78 0 159.58 0L159.58 0 146.25 0Q146.06 0 146.06-0.2L146.06-0.2 146.06-0.78Q146.06-0.98 146.47-0.98 146.89-0.98 147.77-1.37 148.65-1.76 149.32-2.53 149.99-3.3 149.99-4.39L149.99-4.39 149.99-30.76Q149.99-32.35 148.31-33.03L148.31-33.03Q147.33-33.45 146.38-33.45L146.38-33.45 146.28-33.45Q146.08-33.45 146.08-33.64L146.08-33.64 146.08-34.23Q146.08-34.42 146.28-34.42L146.28-34.42 169.3-34.42Q169.59-34.38 169.74-34.29 169.89-34.2 169.89-33.86L169.89-33.86 169.89-27.95Q169.89-27.66 169.8-27.59 169.72-27.51 169.5-27.51L169.5-27.51 169.2-27.51Q169.16-27.54 168.87-28.85 168.59-30.15 168.01-30.86L168.01-30.86Q167.01-31.93 165.74-32.06L165.74-32.06Q165.22-32.1 164.49-32.1L164.49-32.1 155.24-32.1Q154.75-32.1 154.75-31.62L154.75-31.62 154.75-20.31Q154.75-19.75 155.34-19.75L155.34-19.75Z" opacity="1" transform="matrix(1,0,0,1,0,0)" fill="#111827" class="wordmark-text-0" data-fill-palette-color="primary" id="text-0"></path></svg></g></svg></g></svg></g></svg></g></svg></g></svg></g></svg></g></svg></g><defs></defs></svg><rect width="395.52" height="247.2" fill="none" stroke="none" visibility="hidden"></rect></g></svg></g></svg>