<svg xmlns="http://www.w3.org/2000/svg" version="1.1" xmlns:xlink="http://www.w3.org/1999/xlink" xmlns:svgjs="http://svgjs.dev/svgjs" width="2000" height="1324" viewBox="0 0 2000 1324"><g transform="matrix(1,0,0,1,0.9563017963487255,0.536032388663898)"><svg viewBox="0 0 373 247" data-background-color="#dedede" preserveAspectRatio="xMidYMid meet" height="1324" width="2000" xmlns="http://www.w3.org/2000/svg" xmlns:xlink="http://www.w3.org/1999/xlink"><g id="tight-bounds" transform="matrix(1,0,0,1,-0.17835028501903594,-0.09999999999999432)"><svg viewBox="0 0 373.3567005700381 247.2" height="247.2" width="373.3567005700381"><g><svg viewBox="0 0 397.4976 263.18372368829927" height="247.2" width="373.3567005700381"><g><rect width="397.4976" height="8.060969852887782" x="0" y="144.63420484788034" fill="#1f2937" opacity="1" stroke-width="0" stroke="transparent" fill-opacity="1" class="rect-r$-0" data-fill-palette-color="secondary" rx="1%" id="r$-0" data-palette-color="#1f2937"></rect></g><g transform="matrix(1,0,0,1,0.9887999999999693,173.7971900224639)"><svg viewBox="0 0 395.52000000000004 89.38653366583542" height="89.38653366583542" width="395.52000000000004"><g id="textblocktransform"><svg viewBox="0 0 395.52000000000004 89.38653366583542" height="89.38653366583542" width="395.52000000000004" id="textblock"><g><svg viewBox="0 0 395.52000000000004 89.38653366583542" height="89.38653366583542" width="395.52000000000004"><g transform="matrix(1,0,0,1,0,0)"><svg width="395.52000000000004" viewBox="1 -35.25 160.39 36.25" height="89.38653366583542" data-palette-color="#1f2937"><path d="M6.2-30.05Q5.65-30.8 5.15-30.8L5.15-30.8Q4.9-30.8 4.6-30.65L4.6-30.65Q4.3-30.4 4.15-30.15L4.15-30.15 1-31.8Q1.6-33.25 3.05-34.1L3.05-34.1Q4.25-34.85 5.55-34.85L5.55-34.85Q6.75-34.85 7.85-34.15 8.95-33.45 9.65-32.1L9.65-32.1 16.6-19.25 24.85-34.35 29.55-34.35 18.7-14.9 18.75 0.05 14.7 0.05 14.55-14.8 6.2-30.05ZM50.1 0.65Q46.05 0.65 43.1-1.28 40.15-3.2 38.57-6.4 37-9.6 37-13.35L37-13.35 37-29.4Q37-30.15 36.6-30.73 36.2-31.3 35.35-31.3L35.35-31.3Q34.15-31.3 33.6-30.45L33.6-30.45 30.85-32.5Q31.35-33.5 32.52-34.27 33.7-35.05 35.5-35.05L35.5-35.05Q38.15-35.05 39.62-33.48 41.1-31.9 41.1-29.4L41.1-29.4 41.1-13.35Q41.1-10.55 42.15-8.22 43.2-5.9 45.22-4.5 47.25-3.1 50.05-3.1L50.05-3.1Q53-3.1 55-4.58 57-6.05 57.97-8.4 58.95-10.75 58.95-13.35L58.95-13.35 58.95-34.15 63.05-34.15 63.05-13.35Q63.05-9.85 61.6-6.63 60.15-3.4 57.22-1.38 54.3 0.65 50.1 0.65L50.1 0.65ZM80.59 1Q75.89 1 72.49-1.58 69.09-4.15 68.24-8.3L68.24-8.3 71.69-9.8Q72.39-6.7 74.87-4.75 77.34-2.8 80.69-2.8L80.69-2.8Q84.19-2.8 86.42-4.83 88.64-6.85 88.64-10.05L88.64-10.05Q88.64-11.7 88-12.83 87.34-13.95 85.75-14.95 84.14-15.95 81.19-17.15L81.19-17.15Q76.19-19.2 73.99-21.43 71.8-23.65 71.8-26.65L71.8-26.65Q71.8-29.05 73.07-31.03 74.34-33 76.55-34.13 78.75-35.25 81.44-35.25L81.44-35.25Q83.8-35.25 85.72-34.4 87.64-33.55 88.77-32.08 89.89-30.6 89.89-28.85L89.89-28.85Q89.89-26.7 88.5-25.35 87.09-24 84.94-24L84.94-24Q84.3-24 83.94-24.05L83.94-24.05 84.25-27.45Q84.55-27.35 84.69-27.35L84.69-27.35Q85.19-27.35 85.57-27.78 85.94-28.2 85.94-28.8L85.94-28.8Q85.94-29.9 84.64-30.68 83.34-31.45 81.55-31.45L81.55-31.45Q79.25-31.45 77.55-30.1 75.84-28.75 75.84-26.85L75.84-26.85Q75.84-25.15 77.55-23.68 79.25-22.2 82.75-20.75L82.75-20.75Q88.09-18.55 90.44-16.07 92.8-13.6 92.8-10.1L92.8-10.1Q92.8-6.95 91.19-4.42 89.59-1.9 86.82-0.45 84.05 1 80.59 1L80.59 1ZM114.14 0.65Q110.09 0.65 107.14-1.28 104.19-3.2 102.62-6.4 101.04-9.6 101.04-13.35L101.04-13.35 101.04-29.4Q101.04-30.15 100.64-30.73 100.24-31.3 99.39-31.3L99.39-31.3Q98.19-31.3 97.64-30.45L97.64-30.45 94.89-32.5Q95.39-33.5 96.57-34.27 97.74-35.05 99.54-35.05L99.54-35.05Q102.19-35.05 103.67-33.48 105.14-31.9 105.14-29.4L105.14-29.4 105.14-13.35Q105.14-10.55 106.19-8.22 107.24-5.9 109.27-4.5 111.29-3.1 114.09-3.1L114.09-3.1Q117.04-3.1 119.04-4.58 121.04-6.05 122.02-8.4 122.99-10.75 122.99-13.35L122.99-13.35 122.99-34.15 127.09-34.15 127.09-13.35Q127.09-9.85 125.64-6.63 124.19-3.4 121.27-1.38 118.34 0.65 114.14 0.65L114.14 0.65ZM138.94-30.35Q137.64-30.35 137.14-29.9L137.14-29.9Q136.54-29.45 136.54-28.25L136.54-28.25 132.79-28.25Q132.69-31.3 134.59-32.9L134.59-32.9Q136.09-34.25 138.99-34.25L138.99-34.25 161.39-34.25 161.39-30.45 143.09-30.45 143.09-20 155.59-20 155.59-16.15 143.09-16.15 143.09 0.05 138.99 0.05 138.94-30.35Z" opacity="1" transform="matrix(1,0,0,1,0,0)" fill="#1f2937" class="wordmark-text-0" data-fill-palette-color="primary" id="text-0"></path></svg></g></svg></g></svg></g></svg></g><g transform="matrix(1,0,0,1,130.21802713216957,0)"><svg viewBox="0 0 137.06154573566084 123.53218952618457" height="123.53218952618457" width="137.06154573566084"><g><svg xmlns="http://www.w3.org/2000/svg" xmlns:xlink="http://www.w3.org/1999/xlink" version="1.1" x="7.999999999999993" y="0" viewBox="0 0 98 100.00000000000001" enable-background="new 0 0 100 100" xml:space="preserve" width="121.06154573566086" height="123.53218952618457" class="icon-icon-0" data-fill-palette-color="accent" id="icon-0"><g fill="#1f2937" data-fill-palette-color="accent"><circle cx="49.494" cy="6.603" r="2.1" fill="#1f2937" data-fill-palette-color="accent"></circle><path d="M18.267 34.851l6.123-7.465c0.518-0.63 0.425-1.56-0.204-2.076-0.629-0.517-1.56-0.424-2.076 0.204l-6.972 8.499c-0.481 0.586-0.439 1.443 0.098 1.979l7.593 7.591c0.288 0.289 0.665 0.433 1.042 0.433 0.378 0 0.755-0.144 1.043-0.433 0.576-0.576 0.576-1.51 0-2.086L18.267 34.851z" fill="#1f2937" data-fill-palette-color="accent"></path><path d="M44.093 32.998L36.5 25.406c-0.576-0.576-1.509-0.576-2.086 0-0.576 0.577-0.576 1.511 0 2.087l6.647 6.646-6.123 7.465c-0.516 0.63-0.424 1.56 0.206 2.077 0.274 0.225 0.605 0.334 0.935 0.334 0.427 0 0.851-0.185 1.142-0.54l6.97-8.499C44.671 34.39 44.63 33.534 44.093 32.998z" fill="#1f2937" data-fill-palette-color="accent"></path><path d="M88.568 0H9.432C4.491 0 0 4.02 0 8.96v55.608C0 69.51 4.491 74 9.432 74h31.279c0.159 2 0.311 8.268-0.323 10.369-1.163 1.729-13.49 5.365-24.164 7.854C15.56 92.379 15 92.854 15 93.537v4.992c0 0.813 0.835 1.471 1.647 1.471h64.707C82.166 100 83 99.342 83 98.529v-4.992c0-0.684-0.559-1.277-1.225-1.434-10.732-2.486-23.082-6.008-24.202-7.625C56.896 82.277 56.925 76 57.039 74h31.529C93.508 74 98 69.51 98 64.568V8.96C98 4.02 93.508 0 88.568 0zM80 94.703V97H18v-2.298c11-2.638 24.097-6.121 25.095-9.362C43.963 82.512 43.796 76 43.657 74h10.438c-0.104 2-0.188 8.514 0.682 11.343C55.773 88.583 69 92.064 80 94.703zM95 64.98c0 3.326-3.695 6.02-7.02 6.02H9.02C5.695 71 3 68.307 3 64.98V9.019C3 5.695 5.695 3 9.02 3h78.96C91.305 3 95 5.695 95 9.019V64.98z" fill="#1f2937" data-fill-palette-color="accent"></path><path d="M88.529 12H9.471C8.659 12 8 12.659 8 13.471v44.058C8 58.342 8.659 59 9.471 59h79.058C89.342 59 90 58.342 90 57.529V13.471C90 12.659 89.342 12 88.529 12zM11 15h37v41H11V15zM87 56H51V15h36V56z" fill="#1f2937" data-fill-palette-color="accent"></path><path d="M54.5 36h29c0.828 0 1.5-0.671 1.5-1.5v-16c0-0.829-0.672-1.5-1.5-1.5h-29c-0.828 0-1.5 0.671-1.5 1.5v16C53 35.329 53.672 36 54.5 36zM56 20h26v13H56V20z" fill="#1f2937" data-fill-palette-color="accent"></path><path d="M83 39H55c-0.828 0-1.5 0.671-1.5 1.5S54.172 42 55 42h28c0.828 0 1.5-0.671 1.5-1.5S83.828 39 83 39z" fill="#1f2937" data-fill-palette-color="accent"></path><path d="M83 45H55c-0.828 0-1.5 0.671-1.5 1.5S54.172 48 55 48h28c0.828 0 1.5-0.671 1.5-1.5S83.828 45 83 45z" fill="#1f2937" data-fill-palette-color="accent"></path><path d="M83 51H55c-0.828 0-1.5 0.672-1.5 1.5S54.172 54 55 54h28c0.828 0 1.5-0.672 1.5-1.5S83.828 51 83 51z" fill="#1f2937" data-fill-palette-color="accent"></path></g></svg></g></svg></g><g><rect width="46.836447608311346" height="8.060969852887782" y="114.47121967329679" x="267.27957286783044" fill="#1f2937" data-fill-palette-color="secondary"></rect><rect width="46.836447608311346" height="8.060969852887782" y="114.47121967329679" x="83.38157952385822" fill="#1f2937" data-fill-palette-color="secondary"></rect></g></svg></g><defs></defs></svg><rect width="373.3567005700381" height="247.2" fill="none" stroke="none" visibility="hidden"></rect></g></svg></g></svg>